solid OpenSCAD_Model
  facet normal 0.989821 0.142315 0
    outer loop
      vertex 0.685 0 0.35
      vertex 0.657253 0.192987 0
      vertex 0.657253 0.192987 0.35
    endloop
  endfacet
  facet normal 0.989821 0.142315 0
    outer loop
      vertex 0.657253 0.192987 0
      vertex 0.685 0 0.35
      vertex 0.685 0 0
    endloop
  endfacet
  facet normal -0.989821 0.142315 0
    outer loop
      vertex -0.685 0 0
      vertex -0.657253 0.192987 0.35
      vertex -0.657253 0.192987 0
    endloop
  endfacet
  facet normal -0.989821 0.142315 0
    outer loop
      vertex -0.657253 0.192987 0.35
      vertex -0.685 0 0
      vertex -0.685 0 0.35
    endloop
  endfacet
  facet normal 0 1 -0
    outer loop
      vertex 0.0974856 0.678028 0
      vertex -0.0974856 0.678028 0.35
      vertex 0.0974856 0.678028 0.35
    endloop
  endfacet
  facet normal 0 1 0
    outer loop
      vertex -0.0974856 0.678028 0.35
      vertex 0.0974856 0.678028 0
      vertex -0.0974856 0.678028 0
    endloop
  endfacet
  facet normal 0.75575 0.654861 0
    outer loop
      vertex 0.576259 0.370339 0.35
      vertex 0.44858 0.517688 0
      vertex 0.44858 0.517688 0.35
    endloop
  endfacet
  facet normal 0.75575 0.654861 0
    outer loop
      vertex 0.44858 0.517688 0
      vertex 0.576259 0.370339 0.35
      vertex 0.576259 0.370339 0
    endloop
  endfacet
  facet normal 0.909632 0.415415 0
    outer loop
      vertex 0.657253 0.192987 0.35
      vertex 0.576259 0.370339 0
      vertex 0.576259 0.370339 0.35
    endloop
  endfacet
  facet normal 0.909632 0.415415 0
    outer loop
      vertex 0.576259 0.370339 0
      vertex 0.657253 0.192987 0.35
      vertex 0.657253 0.192987 0
    endloop
  endfacet
  facet normal -0.281732 0.959493 0
    outer loop
      vertex -0.0974856 0.678028 0
      vertex -0.284559 0.623098 0.35
      vertex -0.0974856 0.678028 0.35
    endloop
  endfacet
  facet normal -0.281732 0.959493 0
    outer loop
      vertex -0.284559 0.623098 0.35
      vertex -0.0974856 0.678028 0
      vertex -0.284559 0.623098 0
    endloop
  endfacet
  facet normal 0.540641 0.841253 -0
    outer loop
      vertex 0.44858 0.517688 0
      vertex 0.284559 0.623098 0.35
      vertex 0.44858 0.517688 0.35
    endloop
  endfacet
  facet normal 0.540641 0.841253 0
    outer loop
      vertex 0.284559 0.623098 0.35
      vertex 0.44858 0.517688 0
      vertex 0.284559 0.623098 0
    endloop
  endfacet
  facet normal 0.281732 0.959493 -0
    outer loop
      vertex 0.284559 0.623098 0
      vertex 0.0974856 0.678028 0.35
      vertex 0.284559 0.623098 0.35
    endloop
  endfacet
  facet normal 0.281732 0.959493 0
    outer loop
      vertex 0.0974856 0.678028 0.35
      vertex 0.284559 0.623098 0
      vertex 0.0974856 0.678028 0
    endloop
  endfacet
  facet normal 0 0 1
    outer loop
      vertex 0.400596 -0.265249 0.35
      vertex 0.552903 -0.382177 0.35
      vertex 0.558158 -0.374006 0.35
    endloop
  endfacet
  facet normal 0 0 1
    outer loop
      vertex 0.400596 -0.265249 0.35
      vertex 0.393111 -0.27188 0.35
      vertex 0.552903 -0.382177 0.35
    endloop
  endfacet
  facet normal 0 0 1
    outer loop
      vertex 0.311623 -0.0957262 0.35
      vertex 0.393111 -0.27188 0.35
      vertex 0.400596 -0.265249 0.35
    endloop
  endfacet
  facet normal 0 0 1
    outer loop
      vertex 0.311623 -0.0957262 0.35
      vertex 0.301914 -0.0981194 0.35
      vertex 0.393111 -0.27188 0.35
    endloop
  endfacet
  facet normal 0 0 1
    outer loop
      vertex 0.301914 -0.0981194 0.35
      vertex 0.311623 -0.0957262 0.35
      vertex 0.301914 0.0981194 0.35
    endloop
  endfacet
  facet normal 0 0 1
    outer loop
      vertex 0.657253 0.192987 0.35
      vertex 0.675 0 0.35
      vertex 0.685 0 0.35
    endloop
  endfacet
  facet normal 0 0 1
    outer loop
      vertex 0.657253 0.192987 0.35
      vertex 0.647658 0.190169 0.35
      vertex 0.675 0 0.35
    endloop
  endfacet
  facet normal 0 0 1
    outer loop
      vertex 0.576259 0.370339 0.35
      vertex 0.647658 0.190169 0.35
      vertex 0.657253 0.192987 0.35
    endloop
  endfacet
  facet normal 0 0 1
    outer loop
      vertex 0.576259 0.370339 0.35
      vertex 0.567846 0.364933 0.35
      vertex 0.647658 0.190169 0.35
    endloop
  endfacet
  facet normal 0 0 1
    outer loop
      vertex 0.576259 0.370339 0.35
      vertex 0.55981 0.374207 0.35
      vertex 0.567846 0.364933 0.35
    endloop
  endfacet
  facet normal 0 0 1
    outer loop
      vertex 0.55981 0.374207 0.35
      vertex 0.552903 0.382177 0.35
      vertex 0.558158 0.374006 0.35
    endloop
  endfacet
  facet normal 0 0 1
    outer loop
      vertex 0.576259 0.370339 0.35
      vertex 0.552903 0.382177 0.35
      vertex 0.55981 0.374207 0.35
    endloop
  endfacet
  facet normal 0 0 1
    outer loop
      vertex 0.44858 0.517688 0.35
      vertex 0.552903 0.382177 0.35
      vertex 0.576259 0.370339 0.35
    endloop
  endfacet
  facet normal 0 0 1
    outer loop
      vertex 0.44858 0.517688 0.35
      vertex 0.442031 0.510131 0.35
      vertex 0.552903 0.382177 0.35
    endloop
  endfacet
  facet normal 0 0 1
    outer loop
      vertex 0.284559 0.623098 0.35
      vertex 0.442031 0.510131 0.35
      vertex 0.44858 0.517688 0.35
    endloop
  endfacet
  facet normal 0 0 1
    outer loop
      vertex 0.284559 0.623098 0.35
      vertex 0.280405 0.614002 0.35
      vertex 0.442031 0.510131 0.35
    endloop
  endfacet
  facet normal 0 0 1
    outer loop
      vertex 0.0974856 0.678028 0.35
      vertex 0.280405 0.614002 0.35
      vertex 0.284559 0.623098 0.35
    endloop
  endfacet
  facet normal 0 0 1
    outer loop
      vertex 0.0974856 0.678028 0.35
      vertex 0.0960625 0.668129 0.35
      vertex 0.280405 0.614002 0.35
    endloop
  endfacet
  facet normal 0 0 1
    outer loop
      vertex 0.0974856 0.678028 0.35
      vertex -0.0960625 0.668129 0.35
      vertex 0.0960625 0.668129 0.35
    endloop
  endfacet
  facet normal -0 0 1
    outer loop
      vertex -0.0974856 0.678028 0.35
      vertex -0.0960625 0.668129 0.35
      vertex 0.0974856 0.678028 0.35
    endloop
  endfacet
  facet normal 0 0 1
    outer loop
      vertex -0.0974856 0.678028 0.35
      vertex -0.280405 0.614002 0.35
      vertex -0.0960625 0.668129 0.35
    endloop
  endfacet
  facet normal -0 0 1
    outer loop
      vertex -0.284559 0.623098 0.35
      vertex -0.280405 0.614002 0.35
      vertex -0.0974856 0.678028 0.35
    endloop
  endfacet
  facet normal 0 0 1
    outer loop
      vertex -0.284559 0.623098 0.35
      vertex -0.442031 0.510131 0.35
      vertex -0.280405 0.614002 0.35
    endloop
  endfacet
  facet normal -0 0 1
    outer loop
      vertex -0.44858 0.517688 0.35
      vertex -0.442031 0.510131 0.35
      vertex -0.284559 0.623098 0.35
    endloop
  endfacet
  facet normal 0 0 1
    outer loop
      vertex -0.44858 0.517688 0.35
      vertex -0.567846 0.364933 0.35
      vertex -0.442031 0.510131 0.35
    endloop
  endfacet
  facet normal -0 0 1
    outer loop
      vertex -0.576259 0.370339 0.35
      vertex -0.567846 0.364933 0.35
      vertex -0.44858 0.517688 0.35
    endloop
  endfacet
  facet normal 0 0 1
    outer loop
      vertex -0.576259 0.370339 0.35
      vertex -0.647658 0.190169 0.35
      vertex -0.567846 0.364933 0.35
    endloop
  endfacet
  facet normal -0 0 1
    outer loop
      vertex -0.657253 0.192987 0.35
      vertex -0.647658 0.190169 0.35
      vertex -0.576259 0.370339 0.35
    endloop
  endfacet
  facet normal 0 0 1
    outer loop
      vertex -0.657253 0.192987 0.35
      vertex -0.675 0 0.35
      vertex -0.647658 0.190169 0.35
    endloop
  endfacet
  facet normal 0 -0 1
    outer loop
      vertex -0.675 0 0.35
      vertex -0.657253 0.192987 0.35
      vertex -0.685 0 0.35
    endloop
  endfacet
  facet normal -0 0 1
    outer loop
      vertex 0.675 0 0.35
      vertex 0.657253 -0.192987 0.35
      vertex 0.685 0 0.35
    endloop
  endfacet
  facet normal -0 0 1
    outer loop
      vertex 0.647658 -0.190169 0.35
      vertex 0.657253 -0.192987 0.35
      vertex 0.675 0 0.35
    endloop
  endfacet
  facet normal 0 0 1
    outer loop
      vertex 0.647658 -0.190169 0.35
      vertex 0.576259 -0.370339 0.35
      vertex 0.657253 -0.192987 0.35
    endloop
  endfacet
  facet normal -0 0 1
    outer loop
      vertex 0.567846 -0.364933 0.35
      vertex 0.576259 -0.370339 0.35
      vertex 0.647658 -0.190169 0.35
    endloop
  endfacet
  facet normal 0 0 1
    outer loop
      vertex 0.55981 -0.374207 0.35
      vertex 0.576259 -0.370339 0.35
      vertex 0.567846 -0.364933 0.35
    endloop
  endfacet
  facet normal 0 0 1
    outer loop
      vertex 0.552903 -0.382177 0.35
      vertex 0.55981 -0.374207 0.35
      vertex 0.558158 -0.374006 0.35
    endloop
  endfacet
  facet normal 0 0 1
    outer loop
      vertex 0.552903 -0.382177 0.35
      vertex 0.576259 -0.370339 0.35
      vertex 0.55981 -0.374207 0.35
    endloop
  endfacet
  facet normal -0 0 1
    outer loop
      vertex 0.552903 -0.382177 0.35
      vertex 0.44858 -0.517688 0.35
      vertex 0.576259 -0.370339 0.35
    endloop
  endfacet
  facet normal -0 0 1
    outer loop
      vertex 0.442031 -0.510131 0.35
      vertex 0.44858 -0.517688 0.35
      vertex 0.552903 -0.382177 0.35
    endloop
  endfacet
  facet normal 0 0 1
    outer loop
      vertex 0.442031 -0.510131 0.35
      vertex 0.284559 -0.623098 0.35
      vertex 0.44858 -0.517688 0.35
    endloop
  endfacet
  facet normal -0 0 1
    outer loop
      vertex 0.280405 -0.614002 0.35
      vertex 0.284559 -0.623098 0.35
      vertex 0.442031 -0.510131 0.35
    endloop
  endfacet
  facet normal 0 0 1
    outer loop
      vertex 0.280405 -0.614002 0.35
      vertex 0.0974856 -0.678028 0.35
      vertex 0.284559 -0.623098 0.35
    endloop
  endfacet
  facet normal -0 0 1
    outer loop
      vertex 0.0960625 -0.668129 0.35
      vertex 0.0974856 -0.678028 0.35
      vertex 0.280405 -0.614002 0.35
    endloop
  endfacet
  facet normal -0 0 1
    outer loop
      vertex -0.0960625 -0.668129 0.35
      vertex 0.0974856 -0.678028 0.35
      vertex 0.0960625 -0.668129 0.35
    endloop
  endfacet
  facet normal 0 0 1
    outer loop
      vertex -0.0960625 -0.668129 0.35
      vertex -0.0974856 -0.678028 0.35
      vertex 0.0974856 -0.678028 0.35
    endloop
  endfacet
  facet normal 0 0 1
    outer loop
      vertex -0.280405 -0.614002 0.35
      vertex -0.0974856 -0.678028 0.35
      vertex -0.0960625 -0.668129 0.35
    endloop
  endfacet
  facet normal 0 0 1
    outer loop
      vertex -0.280405 -0.614002 0.35
      vertex -0.284559 -0.623098 0.35
      vertex -0.0974856 -0.678028 0.35
    endloop
  endfacet
  facet normal 0 0 1
    outer loop
      vertex -0.442031 -0.510131 0.35
      vertex -0.284559 -0.623098 0.35
      vertex -0.280405 -0.614002 0.35
    endloop
  endfacet
  facet normal 0 0 1
    outer loop
      vertex -0.442031 -0.510131 0.35
      vertex -0.44858 -0.517688 0.35
      vertex -0.284559 -0.623098 0.35
    endloop
  endfacet
  facet normal 0 0 1
    outer loop
      vertex -0.567846 -0.364933 0.35
      vertex -0.44858 -0.517688 0.35
      vertex -0.442031 -0.510131 0.35
    endloop
  endfacet
  facet normal 0 0 1
    outer loop
      vertex -0.567846 -0.364933 0.35
      vertex -0.576259 -0.370339 0.35
      vertex -0.44858 -0.517688 0.35
    endloop
  endfacet
  facet normal 0 0 1
    outer loop
      vertex -0.647658 -0.190169 0.35
      vertex -0.576259 -0.370339 0.35
      vertex -0.567846 -0.364933 0.35
    endloop
  endfacet
  facet normal 0 0 1
    outer loop
      vertex -0.647658 -0.190169 0.35
      vertex -0.657253 -0.192987 0.35
      vertex -0.576259 -0.370339 0.35
    endloop
  endfacet
  facet normal 0 0 1
    outer loop
      vertex -0.675 0 0.35
      vertex -0.657253 -0.192987 0.35
      vertex -0.647658 -0.190169 0.35
    endloop
  endfacet
  facet normal 0 0 1
    outer loop
      vertex -0.657253 -0.192987 0.35
      vertex -0.675 0 0.35
      vertex -0.685 0 0.35
    endloop
  endfacet
  facet normal 0 0 1
    outer loop
      vertex 0.552903 0.382177 0.35
      vertex 0.400596 0.265249 0.35
      vertex 0.558158 0.374006 0.35
    endloop
  endfacet
  facet normal -0 0 1
    outer loop
      vertex 0.393111 0.27188 0.35
      vertex 0.400596 0.265249 0.35
      vertex 0.552903 0.382177 0.35
    endloop
  endfacet
  facet normal 0 0 1
    outer loop
      vertex 0.393111 0.27188 0.35
      vertex 0.311623 0.0957262 0.35
      vertex 0.400596 0.265249 0.35
    endloop
  endfacet
  facet normal 0 0 1
    outer loop
      vertex 0.311623 0.0957262 0.35
      vertex 0.301914 0.0981194 0.35
      vertex 0.311623 -0.0957262 0.35
    endloop
  endfacet
  facet normal -0 0 1
    outer loop
      vertex 0.301914 0.0981194 0.35
      vertex 0.311623 0.0957262 0.35
      vertex 0.393111 0.27188 0.35
    endloop
  endfacet
  facet normal -0.909632 0.415415 0
    outer loop
      vertex -0.657253 0.192987 0
      vertex -0.576259 0.370339 0.35
      vertex -0.576259 0.370339 0
    endloop
  endfacet
  facet normal -0.909632 0.415415 0
    outer loop
      vertex -0.576259 0.370339 0.35
      vertex -0.657253 0.192987 0
      vertex -0.657253 0.192987 0.35
    endloop
  endfacet
  facet normal -0.540641 0.841253 0
    outer loop
      vertex -0.284559 0.623098 0
      vertex -0.44858 0.517688 0.35
      vertex -0.284559 0.623098 0.35
    endloop
  endfacet
  facet normal -0.540641 0.841253 0
    outer loop
      vertex -0.44858 0.517688 0.35
      vertex -0.284559 0.623098 0
      vertex -0.44858 0.517688 0
    endloop
  endfacet
  facet normal -0.75575 0.654861 0
    outer loop
      vertex -0.576259 0.370339 0
      vertex -0.44858 0.517688 0.35
      vertex -0.44858 0.517688 0
    endloop
  endfacet
  facet normal -0.75575 0.654861 0
    outer loop
      vertex -0.44858 0.517688 0.35
      vertex -0.576259 0.370339 0
      vertex -0.576259 0.370339 0.35
    endloop
  endfacet
  facet normal 0.909632 -0.415415 0
    outer loop
      vertex 0.576259 -0.370339 0.35
      vertex 0.657253 -0.192987 0
      vertex 0.657253 -0.192987 0.35
    endloop
  endfacet
  facet normal 0.909632 -0.415415 0
    outer loop
      vertex 0.657253 -0.192987 0
      vertex 0.576259 -0.370339 0.35
      vertex 0.576259 -0.370339 0
    endloop
  endfacet
  facet normal -0.989821 -0.142315 0
    outer loop
      vertex -0.657253 -0.192987 0
      vertex -0.685 0 0.35
      vertex -0.685 0 0
    endloop
  endfacet
  facet normal -0.989821 -0.142315 0
    outer loop
      vertex -0.685 0 0.35
      vertex -0.657253 -0.192987 0
      vertex -0.657253 -0.192987 0.35
    endloop
  endfacet
  facet normal 0.281732 -0.959493 0
    outer loop
      vertex 0.0974856 -0.678028 0
      vertex 0.284559 -0.623098 0.35
      vertex 0.0974856 -0.678028 0.35
    endloop
  endfacet
  facet normal 0.281732 -0.959493 0
    outer loop
      vertex 0.284559 -0.623098 0.35
      vertex 0.0974856 -0.678028 0
      vertex 0.284559 -0.623098 0
    endloop
  endfacet
  facet normal 0.540641 -0.841253 0
    outer loop
      vertex 0.284559 -0.623098 0
      vertex 0.44858 -0.517688 0.35
      vertex 0.284559 -0.623098 0.35
    endloop
  endfacet
  facet normal 0.540641 -0.841253 0
    outer loop
      vertex 0.44858 -0.517688 0.35
      vertex 0.284559 -0.623098 0
      vertex 0.44858 -0.517688 0
    endloop
  endfacet
  facet normal 0.989821 -0.142315 0
    outer loop
      vertex 0.657253 -0.192987 0.35
      vertex 0.685 0 0
      vertex 0.685 0 0.35
    endloop
  endfacet
  facet normal 0.989821 -0.142315 0
    outer loop
      vertex 0.685 0 0
      vertex 0.657253 -0.192987 0.35
      vertex 0.657253 -0.192987 0
    endloop
  endfacet
  facet normal -0.75575 -0.654861 0
    outer loop
      vertex -0.44858 -0.517688 0
      vertex -0.576259 -0.370339 0.35
      vertex -0.576259 -0.370339 0
    endloop
  endfacet
  facet normal -0.75575 -0.654861 0
    outer loop
      vertex -0.576259 -0.370339 0.35
      vertex -0.44858 -0.517688 0
      vertex -0.44858 -0.517688 0.35
    endloop
  endfacet
  facet normal 0 0 -1
    outer loop
      vertex 0.400596 0.265249 0
      vertex 0.552903 0.382177 0
      vertex 0.558158 0.374006 0
    endloop
  endfacet
  facet normal 0 0 -1
    outer loop
      vertex 0.400596 0.265249 0
      vertex 0.393111 0.27188 0
      vertex 0.552903 0.382177 0
    endloop
  endfacet
  facet normal 0 0 -1
    outer loop
      vertex 0.311623 0.0957262 0
      vertex 0.393111 0.27188 0
      vertex 0.400596 0.265249 0
    endloop
  endfacet
  facet normal 0 0 -1
    outer loop
      vertex 0.311623 0.0957262 0
      vertex 0.301914 0.0981194 0
      vertex 0.393111 0.27188 0
    endloop
  endfacet
  facet normal 0 0 -1
    outer loop
      vertex 0.301914 0.0981194 0
      vertex 0.311623 0.0957262 0
      vertex 0.301914 -0.0981194 0
    endloop
  endfacet
  facet normal 0 0 -1
    outer loop
      vertex 0.657253 -0.192987 0
      vertex 0.675 0 0
      vertex 0.685 0 0
    endloop
  endfacet
  facet normal 0 0 -1
    outer loop
      vertex 0.657253 -0.192987 0
      vertex 0.647658 -0.190169 0
      vertex 0.675 0 0
    endloop
  endfacet
  facet normal 0 0 -1
    outer loop
      vertex 0.576259 -0.370339 0
      vertex 0.647658 -0.190169 0
      vertex 0.657253 -0.192987 0
    endloop
  endfacet
  facet normal 0 0 -1
    outer loop
      vertex 0.576259 -0.370339 0
      vertex 0.567846 -0.364933 0
      vertex 0.647658 -0.190169 0
    endloop
  endfacet
  facet normal -0 0 -1
    outer loop
      vertex 0.576259 -0.370339 0
      vertex 0.55981 -0.374207 0
      vertex 0.567846 -0.364933 0
    endloop
  endfacet
  facet normal -0 0 -1
    outer loop
      vertex 0.55981 -0.374207 0
      vertex 0.552903 -0.382177 0
      vertex 0.558158 -0.374006 0
    endloop
  endfacet
  facet normal 0 0 -1
    outer loop
      vertex 0.576259 -0.370339 0
      vertex 0.552903 -0.382177 0
      vertex 0.55981 -0.374207 0
    endloop
  endfacet
  facet normal 0 0 -1
    outer loop
      vertex 0.44858 -0.517688 0
      vertex 0.552903 -0.382177 0
      vertex 0.576259 -0.370339 0
    endloop
  endfacet
  facet normal 0 0 -1
    outer loop
      vertex 0.44858 -0.517688 0
      vertex 0.442031 -0.510131 0
      vertex 0.552903 -0.382177 0
    endloop
  endfacet
  facet normal 0 0 -1
    outer loop
      vertex 0.284559 -0.623098 0
      vertex 0.442031 -0.510131 0
      vertex 0.44858 -0.517688 0
    endloop
  endfacet
  facet normal 0 0 -1
    outer loop
      vertex 0.284559 -0.623098 0
      vertex 0.280405 -0.614002 0
      vertex 0.442031 -0.510131 0
    endloop
  endfacet
  facet normal 0 0 -1
    outer loop
      vertex 0.0974856 -0.678028 0
      vertex 0.280405 -0.614002 0
      vertex 0.284559 -0.623098 0
    endloop
  endfacet
  facet normal 0 0 -1
    outer loop
      vertex 0.0974856 -0.678028 0
      vertex 0.0960625 -0.668129 0
      vertex 0.280405 -0.614002 0
    endloop
  endfacet
  facet normal 0 0 -1
    outer loop
      vertex 0.0974856 -0.678028 0
      vertex -0.0960625 -0.668129 0
      vertex 0.0960625 -0.668129 0
    endloop
  endfacet
  facet normal 0 0 -1
    outer loop
      vertex -0.0974856 -0.678028 0
      vertex -0.0960625 -0.668129 0
      vertex 0.0974856 -0.678028 0
    endloop
  endfacet
  facet normal 0 0 -1
    outer loop
      vertex -0.0974856 -0.678028 0
      vertex -0.280405 -0.614002 0
      vertex -0.0960625 -0.668129 0
    endloop
  endfacet
  facet normal 0 0 -1
    outer loop
      vertex -0.284559 -0.623098 0
      vertex -0.280405 -0.614002 0
      vertex -0.0974856 -0.678028 0
    endloop
  endfacet
  facet normal 0 0 -1
    outer loop
      vertex -0.284559 -0.623098 0
      vertex -0.442031 -0.510131 0
      vertex -0.280405 -0.614002 0
    endloop
  endfacet
  facet normal 0 0 -1
    outer loop
      vertex -0.44858 -0.517688 0
      vertex -0.442031 -0.510131 0
      vertex -0.284559 -0.623098 0
    endloop
  endfacet
  facet normal 0 0 -1
    outer loop
      vertex -0.44858 -0.517688 0
      vertex -0.567846 -0.364933 0
      vertex -0.442031 -0.510131 0
    endloop
  endfacet
  facet normal 0 0 -1
    outer loop
      vertex -0.576259 -0.370339 0
      vertex -0.567846 -0.364933 0
      vertex -0.44858 -0.517688 0
    endloop
  endfacet
  facet normal 0 0 -1
    outer loop
      vertex -0.576259 -0.370339 0
      vertex -0.647658 -0.190169 0
      vertex -0.567846 -0.364933 0
    endloop
  endfacet
  facet normal 0 0 -1
    outer loop
      vertex -0.657253 -0.192987 0
      vertex -0.647658 -0.190169 0
      vertex -0.576259 -0.370339 0
    endloop
  endfacet
  facet normal 0 0 -1
    outer loop
      vertex -0.657253 -0.192987 0
      vertex -0.675 0 0
      vertex -0.647658 -0.190169 0
    endloop
  endfacet
  facet normal -0 -0 -1
    outer loop
      vertex -0.675 0 0
      vertex -0.657253 -0.192987 0
      vertex -0.685 0 0
    endloop
  endfacet
  facet normal 0 0 -1
    outer loop
      vertex 0.675 0 0
      vertex 0.657253 0.192987 0
      vertex 0.685 0 0
    endloop
  endfacet
  facet normal 0 0 -1
    outer loop
      vertex 0.647658 0.190169 0
      vertex 0.657253 0.192987 0
      vertex 0.675 0 0
    endloop
  endfacet
  facet normal 0 0 -1
    outer loop
      vertex 0.647658 0.190169 0
      vertex 0.576259 0.370339 0
      vertex 0.657253 0.192987 0
    endloop
  endfacet
  facet normal 0 0 -1
    outer loop
      vertex 0.567846 0.364933 0
      vertex 0.576259 0.370339 0
      vertex 0.647658 0.190169 0
    endloop
  endfacet
  facet normal 0 0 -1
    outer loop
      vertex 0.55981 0.374207 0
      vertex 0.576259 0.370339 0
      vertex 0.567846 0.364933 0
    endloop
  endfacet
  facet normal 0 0 -1
    outer loop
      vertex 0.552903 0.382177 0
      vertex 0.55981 0.374207 0
      vertex 0.558158 0.374006 0
    endloop
  endfacet
  facet normal 0 0 -1
    outer loop
      vertex 0.552903 0.382177 0
      vertex 0.576259 0.370339 0
      vertex 0.55981 0.374207 0
    endloop
  endfacet
  facet normal 0 0 -1
    outer loop
      vertex 0.552903 0.382177 0
      vertex 0.44858 0.517688 0
      vertex 0.576259 0.370339 0
    endloop
  endfacet
  facet normal 0 0 -1
    outer loop
      vertex 0.442031 0.510131 0
      vertex 0.44858 0.517688 0
      vertex 0.552903 0.382177 0
    endloop
  endfacet
  facet normal 0 0 -1
    outer loop
      vertex 0.442031 0.510131 0
      vertex 0.284559 0.623098 0
      vertex 0.44858 0.517688 0
    endloop
  endfacet
  facet normal 0 0 -1
    outer loop
      vertex 0.280405 0.614002 0
      vertex 0.284559 0.623098 0
      vertex 0.442031 0.510131 0
    endloop
  endfacet
  facet normal 0 0 -1
    outer loop
      vertex 0.280405 0.614002 0
      vertex 0.0974856 0.678028 0
      vertex 0.284559 0.623098 0
    endloop
  endfacet
  facet normal 0 0 -1
    outer loop
      vertex 0.0960625 0.668129 0
      vertex 0.0974856 0.678028 0
      vertex 0.280405 0.614002 0
    endloop
  endfacet
  facet normal 0 0 -1
    outer loop
      vertex -0.0960625 0.668129 0
      vertex 0.0974856 0.678028 0
      vertex 0.0960625 0.668129 0
    endloop
  endfacet
  facet normal 0 0 -1
    outer loop
      vertex -0.0960625 0.668129 0
      vertex -0.0974856 0.678028 0
      vertex 0.0974856 0.678028 0
    endloop
  endfacet
  facet normal 0 0 -1
    outer loop
      vertex -0.280405 0.614002 0
      vertex -0.0974856 0.678028 0
      vertex -0.0960625 0.668129 0
    endloop
  endfacet
  facet normal 0 0 -1
    outer loop
      vertex -0.280405 0.614002 0
      vertex -0.284559 0.623098 0
      vertex -0.0974856 0.678028 0
    endloop
  endfacet
  facet normal 0 0 -1
    outer loop
      vertex -0.442031 0.510131 0
      vertex -0.284559 0.623098 0
      vertex -0.280405 0.614002 0
    endloop
  endfacet
  facet normal 0 0 -1
    outer loop
      vertex -0.442031 0.510131 0
      vertex -0.44858 0.517688 0
      vertex -0.284559 0.623098 0
    endloop
  endfacet
  facet normal 0 0 -1
    outer loop
      vertex -0.567846 0.364933 0
      vertex -0.44858 0.517688 0
      vertex -0.442031 0.510131 0
    endloop
  endfacet
  facet normal 0 0 -1
    outer loop
      vertex -0.567846 0.364933 0
      vertex -0.576259 0.370339 0
      vertex -0.44858 0.517688 0
    endloop
  endfacet
  facet normal 0 0 -1
    outer loop
      vertex -0.647658 0.190169 0
      vertex -0.576259 0.370339 0
      vertex -0.567846 0.364933 0
    endloop
  endfacet
  facet normal 0 0 -1
    outer loop
      vertex -0.647658 0.190169 0
      vertex -0.657253 0.192987 0
      vertex -0.576259 0.370339 0
    endloop
  endfacet
  facet normal 0 0 -1
    outer loop
      vertex -0.675 0 0
      vertex -0.657253 0.192987 0
      vertex -0.647658 0.190169 0
    endloop
  endfacet
  facet normal 0 0 -1
    outer loop
      vertex -0.657253 0.192987 0
      vertex -0.675 0 0
      vertex -0.685 0 0
    endloop
  endfacet
  facet normal 0 0 -1
    outer loop
      vertex 0.552903 -0.382177 0
      vertex 0.400596 -0.265249 0
      vertex 0.558158 -0.374006 0
    endloop
  endfacet
  facet normal 0 0 -1
    outer loop
      vertex 0.393111 -0.27188 0
      vertex 0.400596 -0.265249 0
      vertex 0.552903 -0.382177 0
    endloop
  endfacet
  facet normal 0 0 -1
    outer loop
      vertex 0.393111 -0.27188 0
      vertex 0.311623 -0.0957262 0
      vertex 0.400596 -0.265249 0
    endloop
  endfacet
  facet normal -0 0 -1
    outer loop
      vertex 0.311623 -0.0957262 0
      vertex 0.301914 -0.0981194 0
      vertex 0.311623 0.0957262 0
    endloop
  endfacet
  facet normal 0 0 -1
    outer loop
      vertex 0.301914 -0.0981194 0
      vertex 0.311623 -0.0957262 0
      vertex 0.393111 -0.27188 0
    endloop
  endfacet
  facet normal -0.909632 -0.415415 0
    outer loop
      vertex -0.576259 -0.370339 0
      vertex -0.657253 -0.192987 0.35
      vertex -0.657253 -0.192987 0
    endloop
  endfacet
  facet normal -0.909632 -0.415415 0
    outer loop
      vertex -0.657253 -0.192987 0.35
      vertex -0.576259 -0.370339 0
      vertex -0.576259 -0.370339 0.35
    endloop
  endfacet
  facet normal 0 -1 0
    outer loop
      vertex -0.0974856 -0.678028 0
      vertex 0.0974856 -0.678028 0.35
      vertex -0.0974856 -0.678028 0.35
    endloop
  endfacet
  facet normal 0 -1 -0
    outer loop
      vertex 0.0974856 -0.678028 0.35
      vertex -0.0974856 -0.678028 0
      vertex 0.0974856 -0.678028 0
    endloop
  endfacet
  facet normal -0.281732 -0.959493 0
    outer loop
      vertex -0.284559 -0.623098 0
      vertex -0.0974856 -0.678028 0.35
      vertex -0.284559 -0.623098 0.35
    endloop
  endfacet
  facet normal -0.281732 -0.959493 -0
    outer loop
      vertex -0.0974856 -0.678028 0.35
      vertex -0.284559 -0.623098 0
      vertex -0.0974856 -0.678028 0
    endloop
  endfacet
  facet normal 0.75575 -0.654861 0
    outer loop
      vertex 0.44858 -0.517688 0.35
      vertex 0.576259 -0.370339 0
      vertex 0.576259 -0.370339 0.35
    endloop
  endfacet
  facet normal 0.75575 -0.654861 0
    outer loop
      vertex 0.576259 -0.370339 0
      vertex 0.44858 -0.517688 0.35
      vertex 0.44858 -0.517688 0
    endloop
  endfacet
  facet normal -0.540641 -0.841253 0
    outer loop
      vertex -0.44858 -0.517688 0
      vertex -0.284559 -0.623098 0.35
      vertex -0.44858 -0.517688 0.35
    endloop
  endfacet
  facet normal -0.540641 -0.841253 -0
    outer loop
      vertex -0.284559 -0.623098 0.35
      vertex -0.44858 -0.517688 0
      vertex -0.284559 -0.623098 0
    endloop
  endfacet
  facet normal -0.989821 -0.142315 0
    outer loop
      vertex 0.675 0 0
      vertex 0.647658 0.190169 0.35
      vertex 0.647658 0.190169 0
    endloop
  endfacet
  facet normal -0.989821 -0.142315 0
    outer loop
      vertex 0.647658 0.190169 0.35
      vertex 0.675 0 0
      vertex 0.675 0 0.35
    endloop
  endfacet
  facet normal 0.989821 -0.142315 0
    outer loop
      vertex -0.675 0 0.35
      vertex -0.647658 0.190169 0
      vertex -0.647658 0.190169 0.35
    endloop
  endfacet
  facet normal 0.989821 -0.142315 0
    outer loop
      vertex -0.647658 0.190169 0
      vertex -0.675 0 0.35
      vertex -0.675 0 0
    endloop
  endfacet
  facet normal 0 -1 0
    outer loop
      vertex -0.0960625 0.668129 0
      vertex 0.0960625 0.668129 0.35
      vertex -0.0960625 0.668129 0.35
    endloop
  endfacet
  facet normal 0 -1 -0
    outer loop
      vertex 0.0960625 0.668129 0.35
      vertex -0.0960625 0.668129 0
      vertex 0.0960625 0.668129 0
    endloop
  endfacet
  facet normal 0 1 -0
    outer loop
      vertex 0.0960625 -0.668129 0
      vertex -0.0960625 -0.668129 0.35
      vertex 0.0960625 -0.668129 0.35
    endloop
  endfacet
  facet normal 0 1 0
    outer loop
      vertex -0.0960625 -0.668129 0.35
      vertex 0.0960625 -0.668129 0
      vertex -0.0960625 -0.668129 0
    endloop
  endfacet
  facet normal -0.281733 0.959493 0
    outer loop
      vertex 0.280405 -0.614002 0
      vertex 0.0960625 -0.668129 0.35
      vertex 0.280405 -0.614002 0.35
    endloop
  endfacet
  facet normal -0.281733 0.959493 0
    outer loop
      vertex 0.0960625 -0.668129 0.35
      vertex 0.280405 -0.614002 0
      vertex 0.0960625 -0.668129 0
    endloop
  endfacet
  facet normal -0.540641 -0.841253 0
    outer loop
      vertex 0.280405 0.614002 0
      vertex 0.442031 0.510131 0.35
      vertex 0.280405 0.614002 0.35
    endloop
  endfacet
  facet normal -0.540641 -0.841253 -0
    outer loop
      vertex 0.442031 0.510131 0.35
      vertex 0.280405 0.614002 0
      vertex 0.442031 0.510131 0
    endloop
  endfacet
  facet normal -0.909632 -0.415415 0
    outer loop
      vertex 0.647658 0.190169 0
      vertex 0.567846 0.364933 0.35
      vertex 0.567846 0.364933 0
    endloop
  endfacet
  facet normal -0.909632 -0.415415 0
    outer loop
      vertex 0.567846 0.364933 0.35
      vertex 0.647658 0.190169 0
      vertex 0.647658 0.190169 0.35
    endloop
  endfacet
  facet normal -0.281733 -0.959493 0
    outer loop
      vertex 0.0960625 0.668129 0
      vertex 0.280405 0.614002 0.35
      vertex 0.0960625 0.668129 0.35
    endloop
  endfacet
  facet normal -0.281733 -0.959493 -0
    outer loop
      vertex 0.280405 0.614002 0.35
      vertex 0.0960625 0.668129 0
      vertex 0.280405 0.614002 0
    endloop
  endfacet
  facet normal 0.755749 -0.654861 0
    outer loop
      vertex -0.567846 0.364933 0.35
      vertex -0.442031 0.510131 0
      vertex -0.442031 0.510131 0.35
    endloop
  endfacet
  facet normal 0.755749 -0.654861 0
    outer loop
      vertex -0.442031 0.510131 0
      vertex -0.567846 0.364933 0.35
      vertex -0.567846 0.364933 0
    endloop
  endfacet
  facet normal 0.909632 -0.415415 0
    outer loop
      vertex -0.647658 0.190169 0.35
      vertex -0.567846 0.364933 0
      vertex -0.567846 0.364933 0.35
    endloop
  endfacet
  facet normal 0.909632 -0.415415 0
    outer loop
      vertex -0.567846 0.364933 0
      vertex -0.647658 0.190169 0.35
      vertex -0.647658 0.190169 0
    endloop
  endfacet
  facet normal 0.281733 -0.959493 0
    outer loop
      vertex -0.280405 0.614002 0
      vertex -0.0960625 0.668129 0.35
      vertex -0.280405 0.614002 0.35
    endloop
  endfacet
  facet normal 0.281733 -0.959493 0
    outer loop
      vertex -0.0960625 0.668129 0.35
      vertex -0.280405 0.614002 0
      vertex -0.0960625 0.668129 0
    endloop
  endfacet
  facet normal 0.755749 0.654861 0
    outer loop
      vertex -0.442031 -0.510131 0.35
      vertex -0.567846 -0.364933 0
      vertex -0.567846 -0.364933 0.35
    endloop
  endfacet
  facet normal 0.755749 0.654861 0
    outer loop
      vertex -0.567846 -0.364933 0
      vertex -0.442031 -0.510131 0.35
      vertex -0.442031 -0.510131 0
    endloop
  endfacet
  facet normal -0.755749 -0.654861 0
    outer loop
      vertex 0.552903 0.382177 0
      vertex 0.442031 0.510131 0.35
      vertex 0.442031 0.510131 0
    endloop
  endfacet
  facet normal -0.755749 -0.654861 0
    outer loop
      vertex 0.442031 0.510131 0.35
      vertex 0.552903 0.382177 0
      vertex 0.552903 0.382177 0.35
    endloop
  endfacet
  facet normal -0.755749 -0.654861 0
    outer loop
      vertex 0.567846 0.364933 0
      vertex 0.55981 0.374207 0.35
      vertex 0.55981 0.374207 0
    endloop
  endfacet
  facet normal -0.755749 -0.654861 0
    outer loop
      vertex 0.55981 0.374207 0.35
      vertex 0.567846 0.364933 0
      vertex 0.567846 0.364933 0.35
    endloop
  endfacet
  facet normal 0.540641 -0.841253 0
    outer loop
      vertex -0.442031 0.510131 0
      vertex -0.280405 0.614002 0.35
      vertex -0.442031 0.510131 0.35
    endloop
  endfacet
  facet normal 0.540641 -0.841253 0
    outer loop
      vertex -0.280405 0.614002 0.35
      vertex -0.442031 0.510131 0
      vertex -0.280405 0.614002 0
    endloop
  endfacet
  facet normal 0.989821 0.142315 0
    outer loop
      vertex -0.647658 -0.190169 0.35
      vertex -0.675 0 0
      vertex -0.675 0 0.35
    endloop
  endfacet
  facet normal 0.989821 0.142315 0
    outer loop
      vertex -0.675 0 0
      vertex -0.647658 -0.190169 0.35
      vertex -0.647658 -0.190169 0
    endloop
  endfacet
  facet normal -0.909632 0.415415 0
    outer loop
      vertex 0.567846 -0.364933 0
      vertex 0.647658 -0.190169 0.35
      vertex 0.647658 -0.190169 0
    endloop
  endfacet
  facet normal -0.909632 0.415415 0
    outer loop
      vertex 0.647658 -0.190169 0.35
      vertex 0.567846 -0.364933 0
      vertex 0.567846 -0.364933 0.35
    endloop
  endfacet
  facet normal -0.540641 0.841253 0
    outer loop
      vertex 0.442031 -0.510131 0
      vertex 0.280405 -0.614002 0.35
      vertex 0.442031 -0.510131 0.35
    endloop
  endfacet
  facet normal -0.540641 0.841253 0
    outer loop
      vertex 0.280405 -0.614002 0.35
      vertex 0.442031 -0.510131 0
      vertex 0.280405 -0.614002 0
    endloop
  endfacet
  facet normal -0.989821 0.142315 0
    outer loop
      vertex 0.647658 -0.190169 0
      vertex 0.675 0 0.35
      vertex 0.675 0 0
    endloop
  endfacet
  facet normal -0.989821 0.142315 0
    outer loop
      vertex 0.675 0 0.35
      vertex 0.647658 -0.190169 0
      vertex 0.647658 -0.190169 0.35
    endloop
  endfacet
  facet normal 0.281733 0.959493 -0
    outer loop
      vertex -0.0960625 -0.668129 0
      vertex -0.280405 -0.614002 0.35
      vertex -0.0960625 -0.668129 0.35
    endloop
  endfacet
  facet normal 0.281733 0.959493 0
    outer loop
      vertex -0.280405 -0.614002 0.35
      vertex -0.0960625 -0.668129 0
      vertex -0.280405 -0.614002 0
    endloop
  endfacet
  facet normal 0.909632 0.415415 0
    outer loop
      vertex -0.567846 -0.364933 0.35
      vertex -0.647658 -0.190169 0
      vertex -0.647658 -0.190169 0.35
    endloop
  endfacet
  facet normal 0.909632 0.415415 0
    outer loop
      vertex -0.647658 -0.190169 0
      vertex -0.567846 -0.364933 0.35
      vertex -0.567846 -0.364933 0
    endloop
  endfacet
  facet normal -0.755749 0.654861 0
    outer loop
      vertex 0.442031 -0.510131 0
      vertex 0.552903 -0.382177 0.35
      vertex 0.552903 -0.382177 0
    endloop
  endfacet
  facet normal -0.755749 0.654861 0
    outer loop
      vertex 0.552903 -0.382177 0.35
      vertex 0.442031 -0.510131 0
      vertex 0.442031 -0.510131 0.35
    endloop
  endfacet
  facet normal -0.755749 0.654861 0
    outer loop
      vertex 0.55981 -0.374207 0
      vertex 0.567846 -0.364933 0.35
      vertex 0.567846 -0.364933 0
    endloop
  endfacet
  facet normal -0.755749 0.654861 0
    outer loop
      vertex 0.567846 -0.364933 0.35
      vertex 0.55981 -0.374207 0
      vertex 0.55981 -0.374207 0.35
    endloop
  endfacet
  facet normal 0.540641 0.841253 -0
    outer loop
      vertex -0.280405 -0.614002 0
      vertex -0.442031 -0.510131 0.35
      vertex -0.280405 -0.614002 0.35
    endloop
  endfacet
  facet normal 0.540641 0.841253 0
    outer loop
      vertex -0.442031 -0.510131 0.35
      vertex -0.280405 -0.614002 0
      vertex -0.442031 -0.510131 0
    endloop
  endfacet
  facet normal -1 0 0
    outer loop
      vertex 0.301914 -0.0981194 0
      vertex 0.301914 0.0981194 0.35
      vertex 0.301914 0.0981194 0
    endloop
  endfacet
  facet normal -1 -0 0
    outer loop
      vertex 0.301914 0.0981194 0.35
      vertex 0.301914 -0.0981194 0
      vertex 0.301914 -0.0981194 0.35
    endloop
  endfacet
  facet normal -0.568065 0.822984 0
    outer loop
      vertex 0.552903 0.382177 0
      vertex 0.393111 0.27188 0.35
      vertex 0.552903 0.382177 0.35
    endloop
  endfacet
  facet normal -0.568065 0.822984 0
    outer loop
      vertex 0.393111 0.27188 0.35
      vertex 0.552903 0.382177 0
      vertex 0.393111 0.27188 0
    endloop
  endfacet
  facet normal -0.885456 0.464723 0
    outer loop
      vertex 0.301914 0.0981194 0
      vertex 0.393111 0.27188 0.35
      vertex 0.393111 0.27188 0
    endloop
  endfacet
  facet normal -0.885456 0.464723 0
    outer loop
      vertex 0.393111 0.27188 0.35
      vertex 0.301914 0.0981194 0
      vertex 0.301914 0.0981194 0.35
    endloop
  endfacet
  facet normal -0.885456 -0.464723 0
    outer loop
      vertex 0.393111 -0.27188 0
      vertex 0.301914 -0.0981194 0.35
      vertex 0.301914 -0.0981194 0
    endloop
  endfacet
  facet normal -0.885456 -0.464723 0
    outer loop
      vertex 0.301914 -0.0981194 0.35
      vertex 0.393111 -0.27188 0
      vertex 0.393111 -0.27188 0.35
    endloop
  endfacet
  facet normal -0.568065 -0.822984 0
    outer loop
      vertex 0.393111 -0.27188 0
      vertex 0.552903 -0.382177 0.35
      vertex 0.393111 -0.27188 0.35
    endloop
  endfacet
  facet normal -0.568065 -0.822984 -0
    outer loop
      vertex 0.552903 -0.382177 0.35
      vertex 0.393111 -0.27188 0
      vertex 0.552903 -0.382177 0
    endloop
  endfacet
  facet normal 1 -0 0
    outer loop
      vertex 0.311623 -0.0957262 0.35
      vertex 0.311623 0.0957262 0
      vertex 0.311623 0.0957262 0.35
    endloop
  endfacet
  facet normal 1 0 0
    outer loop
      vertex 0.311623 0.0957262 0
      vertex 0.311623 -0.0957262 0.35
      vertex 0.311623 -0.0957262 0
    endloop
  endfacet
  facet normal 0.120533 -0.992709 0
    outer loop
      vertex 0.558158 0.374006 0
      vertex 0.55981 0.374207 0.35
      vertex 0.558158 0.374006 0.35
    endloop
  endfacet
  facet normal 0.120533 -0.992709 0
    outer loop
      vertex 0.55981 0.374207 0.35
      vertex 0.558158 0.374006 0
      vertex 0.55981 0.374207 0
    endloop
  endfacet
  facet normal 0.568065 -0.822984 0
    outer loop
      vertex 0.400596 0.265249 0
      vertex 0.558158 0.374006 0.35
      vertex 0.400596 0.265249 0.35
    endloop
  endfacet
  facet normal 0.568065 -0.822984 0
    outer loop
      vertex 0.558158 0.374006 0.35
      vertex 0.400596 0.265249 0
      vertex 0.558158 0.374006 0
    endloop
  endfacet
  facet normal 0.885456 -0.464723 0
    outer loop
      vertex 0.311623 0.0957262 0.35
      vertex 0.400596 0.265249 0
      vertex 0.400596 0.265249 0.35
    endloop
  endfacet
  facet normal 0.885456 -0.464723 0
    outer loop
      vertex 0.400596 0.265249 0
      vertex 0.311623 0.0957262 0.35
      vertex 0.311623 0.0957262 0
    endloop
  endfacet
  facet normal 0.120533 0.992709 -0
    outer loop
      vertex 0.55981 -0.374207 0
      vertex 0.558158 -0.374006 0.35
      vertex 0.55981 -0.374207 0.35
    endloop
  endfacet
  facet normal 0.120533 0.992709 0
    outer loop
      vertex 0.558158 -0.374006 0.35
      vertex 0.55981 -0.374207 0
      vertex 0.558158 -0.374006 0
    endloop
  endfacet
  facet normal 0.568065 0.822984 -0
    outer loop
      vertex 0.558158 -0.374006 0
      vertex 0.400596 -0.265249 0.35
      vertex 0.558158 -0.374006 0.35
    endloop
  endfacet
  facet normal 0.568065 0.822984 0
    outer loop
      vertex 0.400596 -0.265249 0.35
      vertex 0.558158 -0.374006 0
      vertex 0.400596 -0.265249 0
    endloop
  endfacet
  facet normal 0.885456 0.464723 0
    outer loop
      vertex 0.400596 -0.265249 0.35
      vertex 0.311623 -0.0957262 0
      vertex 0.311623 -0.0957262 0.35
    endloop
  endfacet
  facet normal 0.885456 0.464723 0
    outer loop
      vertex 0.311623 -0.0957262 0
      vertex 0.400596 -0.265249 0.35
      vertex 0.400596 -0.265249 0
    endloop
  endfacet
endsolid OpenSCAD_Model
